<svg xmlns="http://www.w3.org/2000/svg" width="102" height="102" fill="none" viewBox="0 0 102 102"><path fill="url(#paint0_linear)" d="M50.8961 0C37.3976 1.01047e-06 24.452 5.36226 14.9071 14.9071C5.36226 24.452 1.37647e-06 37.3976 0 50.8961C-6.56609e-07 57.5799 1.31647 64.1982 3.87423 70.3732C6.432 76.5482 10.181 82.159 14.9071 86.8851C19.6333 91.6113 25.244 95.3602 31.419 97.918C37.594 100.476 44.2123 101.792 50.8961 101.792C64.3946 101.792 77.3402 96.43 86.8851 86.8851C96.43 77.3402 101.792 64.3946 101.792 50.8961C101.792 37.3976 96.43 24.452 86.8851 14.9071C77.3402 5.36226 64.3946 6.89563e-06 50.8961 0ZM33.1814 28.1016C33.588 28.094 33.9919 28.1678 34.3695 28.3187L78.4634 46.0406C79.0862 46.2899 79.6093 46.7377 79.9517 47.3145C80.2941 47.8913 80.4367 48.565 80.3573 49.2311C80.2779 49.8972 79.9811 50.5185 79.5127 50.9987C79.0444 51.4789 78.4307 51.7912 77.7668 51.8873L56.1857 55.0245L52.2335 78.3446C52.1199 79.0128 51.7869 79.6241 51.287 80.0818C50.7872 80.5396 50.149 80.8177 49.4734 80.8722C48.7978 80.9266 48.1233 80.7544 47.5565 80.3826C46.9898 80.0109 46.5631 79.4609 46.3439 78.8195L30.3506 32.134C30.1955 31.6794 30.1499 31.1947 30.2177 30.7192C30.2855 30.2437 30.4647 29.791 30.7406 29.3979C31.0166 29.0049 31.3815 28.6825 31.8057 28.4573C32.2298 28.232 32.7012 28.1101 33.1814 28.1016Z"/><defs><linearGradient id="paint0_linear" x1="50.896" x2="50.896" y1="0" y2="101.792" gradientUnits="userSpaceOnUse"><stop stop-color="#D058D3"/><stop offset="1" stop-color="#8636CB"/></linearGradient></defs></svg>